<?xml version="1.0" encoding="UTF-8"?>
<svg xmlns="http://www.w3.org/2000/svg" width="180" height="180" viewBox="0 0 1254 1254" role="img" aria-label="BBDI Trainning logo">
  <title>BBDI Trainning</title>
  <g fill="#f2f2f2" fill-rule="evenodd">
    <path d="M 804.0 1068.0 L 754.0 1077.0 L 708.0 1108.0 L 651.0 1142.0 L 608.0 1117.0 L 590.0 1105.0 L 559.0 1110.0 L 559.0 1111.0 L 601.0 1138.0 L 651.0 1167.0 L 726.0 1122.0 L 771.0 1092.0 Z M 890.0 1036.0 L 798.0 1048.0 L 579.0 1083.0 L 353.0 1127.0 L 600.0 1090.0 Z M 527.0 1022.0 L 521.0 1022.0 L 515.0 1024.0 L 505.0 1025.0 L 500.0 1028.0 L 499.0 1026.0 L 492.0 1027.0 L 483.0 1032.0 L 480.0 1036.0 L 477.0 1044.0 L 477.0 1047.0 L 475.0 1051.0 L 474.0 1058.0 L 472.0 1062.0 L 472.0 1065.0 L 470.0 1069.0 L 470.0 1072.0 L 467.0 1081.0 L 473.0 1081.0 L 474.0 1080.0 L 484.0 1079.0 L 486.0 1076.0 L 486.0 1073.0 L 488.0 1069.0 L 488.0 1066.0 L 490.0 1062.0 L 490.0 1059.0 L 495.0 1042.0 L 498.0 1039.0 L 501.0 1038.0 L 523.0 1035.0 Z M 479.0 1013.0 L 468.0 1014.0 L 467.0 1015.0 L 462.0 1015.0 L 461.0 1016.0 L 456.0 1016.0 L 455.0 1017.0 L 450.0 1017.0 L 449.0 1018.0 L 444.0 1018.0 L 443.0 1019.0 L 438.0 1019.0 L 431.0 1021.0 L 425.0 1021.0 L 424.0 1022.0 L 419.0 1022.0 L 418.0 1023.0 L 413.0 1023.0 L 406.0 1025.0 L 402.0 1039.0 L 417.0 1037.0 L 418.0 1036.0 L 423.0 1036.0 L 424.0 1035.0 L 428.0 1035.0 L 429.0 1036.0 L 414.0 1090.0 L 425.0 1089.0 L 426.0 1088.0 L 431.0 1088.0 L 433.0 1087.0 L 448.0 1033.0 L 450.0 1031.0 L 455.0 1031.0 L 456.0 1030.0 L 461.0 1030.0 L 462.0 1029.0 L 467.0 1029.0 L 468.0 1028.0 L 473.0 1028.0 L 475.0 1027.0 L 477.0 1023.0 Z M 591.0 1013.0 L 582.0 1012.0 L 581.0 1013.0 L 575.0 1013.0 L 574.0 1014.0 L 569.0 1014.0 L 563.0 1016.0 L 541.0 1019.0 L 537.0 1032.0 L 552.0 1030.0 L 553.0 1029.0 L 558.0 1029.0 L 559.0 1028.0 L 564.0 1028.0 L 565.0 1027.0 L 570.0 1027.0 L 571.0 1026.0 L 575.0 1026.0 L 577.0 1029.0 L 575.0 1032.0 L 572.0 1033.0 L 548.0 1036.0 L 541.0 1038.0 L 534.0 1042.0 L 530.0 1047.0 L 527.0 1055.0 L 527.0 1058.0 L 526.0 1059.0 L 526.0 1065.0 L 527.0 1067.0 L 532.0 1070.0 L 539.0 1070.0 L 540.0 1069.0 L 546.0 1069.0 L 547.0 1068.0 L 562.0 1066.0 L 566.0 1063.0 L 567.0 1065.0 L 570.0 1065.0 L 571.0 1064.0 L 576.0 1064.0 L 577.0 1063.0 L 582.0 1063.0 L 584.0 1062.0 L 595.0 1024.0 L 595.0 1018.0 Z M 572.0 1044.0 L 571.0 1050.0 L 569.0 1053.0 L 554.0 1055.0 L 553.0 1056.0 L 548.0 1056.0 L 547.0 1057.0 L 544.0 1055.0 L 546.0 1049.0 L 549.0 1047.0 L 557.0 1046.0 L 558.0 1045.0 L 570.0 1044.0 L 571.0 1043.0 Z M 630.0 1005.0 L 614.0 1007.0 L 612.0 1009.0 L 608.0 1026.0 L 602.0 1044.0 L 601.0 1051.0 L 599.0 1055.0 L 599.0 1058.0 L 598.0 1059.0 L 599.0 1060.0 L 600.0 1059.0 L 606.0 1059.0 L 607.0 1058.0 L 616.0 1057.0 Z M 700.0 997.0 L 697.0 995.0 L 685.0 995.0 L 684.0 996.0 L 669.0 998.0 L 662.0 1002.0 L 661.0 1000.0 L 645.0 1002.0 L 642.0 1009.0 L 640.0 1020.0 L 638.0 1024.0 L 638.0 1027.0 L 636.0 1031.0 L 636.0 1034.0 L 630.0 1055.0 L 631.0 1054.0 L 643.0 1053.0 L 648.0 1051.0 L 648.0 1048.0 L 650.0 1044.0 L 650.0 1041.0 L 653.0 1033.0 L 656.0 1019.0 L 658.0 1014.0 L 660.0 1012.0 L 665.0 1012.0 L 666.0 1011.0 L 671.0 1011.0 L 678.0 1009.0 L 682.0 1009.0 L 683.0 1010.0 L 681.0 1021.0 L 679.0 1025.0 L 679.0 1028.0 L 677.0 1032.0 L 677.0 1035.0 L 673.0 1047.0 L 679.0 1047.0 L 680.0 1046.0 L 690.0 1045.0 L 692.0 1042.0 L 692.0 1039.0 L 694.0 1035.0 L 694.0 1032.0 L 696.0 1028.0 L 696.0 1025.0 L 698.0 1021.0 L 698.0 1018.0 L 702.0 1006.0 L 702.0 1001.0 Z M 635.0 986.0 L 619.0 988.0 L 617.0 990.0 L 614.0 1002.0 L 632.0 999.0 Z M 772.0 983.0 L 765.0 982.0 L 764.0 983.0 L 759.0 983.0 L 758.0 984.0 L 752.0 984.0 L 751.0 985.0 L 743.0 986.0 L 738.0 989.0 L 735.0 987.0 L 734.0 988.0 L 719.0 990.0 L 716.0 999.0 L 716.0 1002.0 L 714.0 1006.0 L 713.0 1013.0 L 711.0 1017.0 L 711.0 1020.0 L 709.0 1024.0 L 705.0 1042.0 L 721.0 1040.0 L 723.0 1038.0 L 723.0 1035.0 L 730.0 1013.0 L 732.0 1003.0 L 735.0 1000.0 L 746.0 999.0 L 753.0 997.0 L 756.0 997.0 L 757.0 998.0 L 757.0 1003.0 L 755.0 1007.0 L 755.0 1010.0 L 748.0 1035.0 L 765.0 1033.0 L 776.0 996.0 L 776.0 988.0 Z M 811.0 975.0 L 802.0 976.0 L 801.0 977.0 L 795.0 977.0 L 793.0 979.0 L 788.0 1000.0 L 784.0 1011.0 L 783.0 1018.0 L 781.0 1022.0 L 780.0 1030.0 L 797.0 1027.0 Z M 882.0 968.0 L 878.0 965.0 L 867.0 965.0 L 866.0 966.0 L 850.0 968.0 L 843.0 972.0 L 842.0 970.0 L 826.0 972.0 L 824.0 976.0 L 819.0 998.0 L 817.0 1002.0 L 817.0 1005.0 L 815.0 1009.0 L 815.0 1012.0 L 811.0 1024.0 L 812.0 1025.0 L 813.0 1024.0 L 819.0 1024.0 L 820.0 1023.0 L 828.0 1022.0 L 830.0 1018.0 L 830.0 1015.0 L 832.0 1011.0 L 833.0 1004.0 L 835.0 1000.0 L 835.0 997.0 L 839.0 985.0 L 843.0 982.0 L 848.0 982.0 L 855.0 980.0 L 861.0 980.0 L 862.0 979.0 L 864.0 981.0 L 864.0 985.0 L 860.0 996.0 L 855.0 1018.0 L 872.0 1015.0 L 883.0 977.0 Z M 271.0 960.0 L 270.0 959.0 L 269.0 960.0 L 265.0 960.0 L 256.0 963.0 L 252.0 963.0 L 243.0 966.0 L 239.0 966.0 L 230.0 969.0 L 226.0 969.0 L 217.0 972.0 L 213.0 972.0 L 208.0 974.0 L 204.0 974.0 L 195.0 977.0 L 191.0 977.0 L 182.0 980.0 L 173.0 981.0 L 172.0 982.0 L 160.0 984.0 L 151.0 987.0 L 142.0 988.0 L 137.0 990.0 L 123.0 992.0 L 118.0 994.0 L 134.0 993.0 L 135.0 992.0 L 145.0 992.0 L 146.0 991.0 L 155.0 991.0 L 156.0 990.0 L 164.0 990.0 L 165.0 989.0 L 174.0 989.0 L 175.0 988.0 L 184.0 988.0 L 185.0 987.0 L 193.0 987.0 L 194.0 986.0 L 203.0 986.0 L 204.0 985.0 L 212.0 985.0 L 213.0 984.0 L 221.0 984.0 L 222.0 983.0 L 231.0 983.0 L 232.0 982.0 L 240.0 982.0 L 241.0 981.0 L 265.0 979.0 L 269.0 967.0 L 269.0 964.0 Z M 816.0 956.0 L 799.0 959.0 L 795.0 972.0 L 805.0 971.0 L 806.0 970.0 L 812.0 970.0 L 815.0 963.0 Z M 961.0 950.0 L 943.0 953.0 L 942.0 956.0 L 938.0 954.0 L 934.0 954.0 L 933.0 955.0 L 911.0 958.0 L 904.0 962.0 L 898.0 968.0 L 896.0 972.0 L 896.0 975.0 L 893.0 982.0 L 892.0 989.0 L 889.0 997.0 L 889.0 1005.0 L 890.0 1007.0 L 895.0 1010.0 L 901.0 1010.0 L 902.0 1009.0 L 908.0 1009.0 L 909.0 1008.0 L 924.0 1006.0 L 928.0 1003.0 L 929.0 1005.0 L 928.0 1006.0 L 928.0 1009.0 L 924.0 1013.0 L 887.0 1019.0 L 884.0 1026.0 L 883.0 1032.0 L 927.0 1025.0 L 936.0 1021.0 L 941.0 1016.0 L 945.0 1009.0 L 945.0 1006.0 L 947.0 1002.0 L 947.0 999.0 L 949.0 995.0 L 950.0 988.0 L 952.0 984.0 L 952.0 981.0 L 954.0 977.0 L 954.0 974.0 L 956.0 970.0 L 956.0 967.0 L 958.0 963.0 Z M 939.0 968.0 L 936.0 977.0 L 936.0 980.0 L 934.0 984.0 L 934.0 987.0 L 931.0 992.0 L 929.0 993.0 L 924.0 993.0 L 923.0 994.0 L 918.0 994.0 L 917.0 995.0 L 912.0 995.0 L 911.0 996.0 L 908.0 995.0 L 907.0 993.0 L 909.0 989.0 L 912.0 974.0 L 915.0 971.0 L 921.0 969.0 L 932.0 968.0 L 933.0 967.0 L 938.0 967.0 Z M 283.0 915.0 L 271.0 917.0 L 266.0 919.0 L 262.0 919.0 L 244.0 924.0 L 240.0 924.0 L 235.0 926.0 L 231.0 926.0 L 230.0 927.0 L 218.0 929.0 L 209.0 932.0 L 200.0 933.0 L 199.0 934.0 L 187.0 936.0 L 182.0 938.0 L 178.0 938.0 L 173.0 940.0 L 169.0 940.0 L 164.0 942.0 L 152.0 944.0 L 152.0 945.0 L 165.0 944.0 L 166.0 943.0 L 178.0 943.0 L 179.0 942.0 L 191.0 942.0 L 192.0 941.0 L 203.0 941.0 L 204.0 940.0 L 216.0 940.0 L 217.0 939.0 L 252.0 937.0 L 253.0 936.0 L 264.0 936.0 L 265.0 935.0 L 276.0 935.0 L 278.0 934.0 Z M 296.0 871.0 L 161.0 901.0 L 184.0 900.0 L 185.0 899.0 L 198.0 899.0 L 199.0 898.0 L 209.0 898.0 L 210.0 897.0 L 220.0 897.0 L 221.0 896.0 L 231.0 896.0 L 232.0 895.0 L 242.0 895.0 L 243.0 894.0 L 253.0 894.0 L 254.0 893.0 L 289.0 891.0 L 291.0 889.0 Z M 1133.0 868.0 L 1127.0 868.0 L 1120.0 870.0 L 1103.0 871.0 L 1102.0 872.0 L 1095.0 872.0 L 1094.0 873.0 L 1087.0 873.0 L 1086.0 874.0 L 1079.0 874.0 L 1078.0 875.0 L 1071.0 875.0 L 1070.0 876.0 L 1063.0 876.0 L 1062.0 877.0 L 1055.0 877.0 L 1054.0 878.0 L 1048.0 878.0 L 1047.0 879.0 L 1041.0 879.0 L 1040.0 880.0 L 1019.0 882.0 L 1016.0 889.0 L 1013.0 902.0 L 1024.0 900.0 L 1048.0 892.0 L 1051.0 892.0 L 1072.0 885.0 L 1079.0 884.0 L 1089.0 880.0 L 1092.0 880.0 L 1113.0 873.0 L 1116.0 873.0 Z M 1152.0 824.0 L 1145.0 824.0 L 1144.0 825.0 L 1138.0 825.0 L 1137.0 826.0 L 1107.0 829.0 L 1106.0 830.0 L 1100.0 830.0 L 1099.0 831.0 L 1085.0 832.0 L 1084.0 833.0 L 1078.0 833.0 L 1077.0 834.0 L 1071.0 834.0 L 1070.0 835.0 L 1064.0 835.0 L 1063.0 836.0 L 1056.0 836.0 L 1055.0 837.0 L 1049.0 837.0 L 1048.0 838.0 L 1030.0 840.0 L 1025.0 860.0 L 1034.0 857.0 L 1037.0 857.0 L 1041.0 855.0 L 1044.0 855.0 L 1048.0 853.0 L 1051.0 853.0 L 1055.0 851.0 L 1058.0 851.0 L 1062.0 849.0 L 1065.0 849.0 L 1069.0 847.0 L 1072.0 847.0 L 1076.0 845.0 L 1079.0 845.0 L 1100.0 838.0 L 1103.0 838.0 L 1107.0 836.0 L 1110.0 836.0 L 1131.0 829.0 L 1134.0 829.0 L 1138.0 827.0 Z M 522.0 831.0 L 516.0 825.0 L 507.0 821.0 L 486.0 820.0 L 340.0 845.0 L 289.0 1023.0 L 444.0 997.0 L 460.0 992.0 L 480.0 980.0 L 495.0 963.0 L 503.0 944.0 L 508.0 926.0 L 508.0 912.0 L 501.0 903.0 L 493.0 899.0 L 503.0 893.0 L 513.0 883.0 L 519.0 872.0 L 525.0 851.0 L 525.0 838.0 Z M 448.0 932.0 L 449.0 936.0 L 446.0 944.0 L 446.0 947.0 L 444.0 951.0 L 439.0 956.0 L 433.0 958.0 L 424.0 959.0 L 423.0 960.0 L 418.0 960.0 L 417.0 961.0 L 412.0 961.0 L 411.0 962.0 L 406.0 962.0 L 405.0 963.0 L 400.0 963.0 L 399.0 964.0 L 370.0 968.0 L 364.0 970.0 L 363.0 969.0 L 367.0 957.0 L 367.0 954.0 L 369.0 950.0 L 369.0 947.0 L 372.0 941.0 L 387.0 939.0 L 388.0 938.0 L 393.0 938.0 L 394.0 937.0 L 399.0 937.0 L 400.0 936.0 L 405.0 936.0 L 406.0 935.0 L 411.0 935.0 L 412.0 934.0 L 417.0 934.0 L 418.0 933.0 L 423.0 933.0 L 424.0 932.0 L 430.0 932.0 L 436.0 930.0 L 445.0 930.0 Z M 462.0 869.0 L 462.0 875.0 L 458.0 886.0 L 454.0 890.0 L 450.0 892.0 L 434.0 894.0 L 433.0 895.0 L 417.0 897.0 L 416.0 898.0 L 411.0 898.0 L 410.0 899.0 L 405.0 899.0 L 404.0 900.0 L 399.0 900.0 L 398.0 901.0 L 393.0 901.0 L 392.0 902.0 L 387.0 902.0 L 386.0 903.0 L 383.0 903.0 L 382.0 902.0 L 385.0 894.0 L 388.0 880.0 L 391.0 876.0 L 408.0 874.0 L 414.0 872.0 L 419.0 872.0 L 420.0 871.0 L 425.0 871.0 L 426.0 870.0 L 437.0 869.0 L 438.0 868.0 L 443.0 868.0 L 450.0 866.0 L 459.0 866.0 Z M 729.0 798.0 L 722.0 791.0 L 715.0 788.0 L 691.0 787.0 L 562.0 809.0 L 560.0 811.0 L 512.0 985.0 L 653.0 962.0 L 667.0 958.0 L 689.0 945.0 L 704.0 927.0 L 713.0 902.0 L 716.0 890.0 L 716.0 879.0 L 710.0 870.0 L 701.0 866.0 L 715.0 856.0 L 725.0 841.0 L 732.0 816.0 L 732.0 806.0 Z M 659.0 899.0 L 657.0 910.0 L 654.0 917.0 L 647.0 922.0 L 640.0 923.0 L 639.0 924.0 L 634.0 924.0 L 633.0 925.0 L 628.0 925.0 L 627.0 926.0 L 622.0 926.0 L 621.0 927.0 L 616.0 927.0 L 610.0 929.0 L 593.0 931.0 L 592.0 932.0 L 586.0 932.0 L 585.0 933.0 L 582.0 933.0 L 581.0 932.0 L 585.0 915.0 L 587.0 911.0 L 587.0 908.0 L 591.0 905.0 L 596.0 905.0 L 597.0 904.0 L 602.0 904.0 L 603.0 903.0 L 608.0 903.0 L 609.0 902.0 L 614.0 902.0 L 615.0 901.0 L 620.0 901.0 L 621.0 900.0 L 626.0 900.0 L 627.0 899.0 L 632.0 899.0 L 633.0 898.0 L 638.0 898.0 L 639.0 897.0 L 644.0 897.0 L 651.0 895.0 L 657.0 896.0 Z M 672.0 835.0 L 673.0 838.0 L 670.0 846.0 L 670.0 849.0 L 667.0 854.0 L 663.0 857.0 L 656.0 858.0 L 655.0 859.0 L 650.0 859.0 L 649.0 860.0 L 644.0 860.0 L 643.0 861.0 L 638.0 861.0 L 637.0 862.0 L 632.0 862.0 L 626.0 864.0 L 603.0 867.0 L 602.0 868.0 L 599.0 867.0 L 606.0 842.0 L 614.0 841.0 L 615.0 840.0 L 620.0 840.0 L 621.0 839.0 L 626.0 839.0 L 627.0 838.0 L 632.0 838.0 L 633.0 837.0 L 638.0 837.0 L 639.0 836.0 L 644.0 836.0 L 645.0 835.0 L 657.0 834.0 L 663.0 832.0 L 669.0 832.0 Z M 1168.0 780.0 L 1158.0 781.0 L 1157.0 782.0 L 1151.0 782.0 L 1144.0 784.0 L 1138.0 784.0 L 1137.0 785.0 L 1131.0 785.0 L 1130.0 786.0 L 1124.0 786.0 L 1123.0 787.0 L 1117.0 787.0 L 1116.0 788.0 L 1109.0 788.0 L 1108.0 789.0 L 1089.0 791.0 L 1088.0 792.0 L 1081.0 792.0 L 1080.0 793.0 L 1061.0 795.0 L 1060.0 796.0 L 1054.0 796.0 L 1047.0 798.0 L 1042.0 798.0 L 1038.0 810.0 L 1037.0 818.0 Z M 932.0 764.0 L 926.0 758.0 L 917.0 754.0 L 893.0 753.0 L 769.0 775.0 L 720.0 951.0 L 852.0 929.0 L 867.0 924.0 L 887.0 912.0 L 900.0 899.0 L 913.0 875.0 L 937.0 787.0 L 937.0 776.0 Z M 871.0 802.0 L 875.0 807.0 L 875.0 812.0 L 872.0 820.0 L 871.0 827.0 L 869.0 831.0 L 868.0 838.0 L 866.0 842.0 L 864.0 853.0 L 859.0 867.0 L 859.0 870.0 L 854.0 880.0 L 848.0 885.0 L 841.0 888.0 L 836.0 888.0 L 835.0 889.0 L 830.0 889.0 L 823.0 891.0 L 817.0 891.0 L 816.0 892.0 L 811.0 892.0 L 810.0 893.0 L 805.0 893.0 L 804.0 894.0 L 799.0 894.0 L 798.0 895.0 L 793.0 895.0 L 791.0 896.0 L 790.0 895.0 L 791.0 890.0 L 793.0 886.0 L 794.0 879.0 L 798.0 868.0 L 798.0 865.0 L 803.0 850.0 L 804.0 843.0 L 812.0 818.0 L 813.0 811.0 L 816.0 809.0 L 821.0 809.0 L 827.0 807.0 L 839.0 806.0 L 840.0 805.0 L 845.0 805.0 L 846.0 804.0 L 851.0 804.0 L 852.0 803.0 L 857.0 803.0 L 864.0 801.0 Z M 615.0 749.0 L 599.0 751.0 L 598.0 752.0 L 591.0 752.0 L 590.0 753.0 L 571.0 757.0 L 579.0 756.0 L 584.0 754.0 L 595.0 753.0 L 601.0 751.0 L 606.0 751.0 L 611.0 749.0 Z M 660.0 751.0 L 658.0 748.0 L 655.0 748.0 L 654.0 749.0 L 644.0 750.0 L 643.0 751.0 L 639.0 751.0 L 633.0 753.0 L 628.0 753.0 L 627.0 754.0 L 623.0 754.0 L 617.0 756.0 L 612.0 756.0 L 611.0 757.0 L 607.0 757.0 L 606.0 758.0 L 602.0 758.0 L 601.0 759.0 L 592.0 760.0 L 586.0 762.0 L 574.0 763.0 L 567.0 765.0 L 560.0 765.0 L 559.0 767.0 L 560.0 769.0 L 564.0 769.0 L 570.0 767.0 L 575.0 767.0 L 576.0 766.0 L 581.0 766.0 L 587.0 764.0 L 610.0 761.0 L 611.0 760.0 L 621.0 759.0 L 627.0 757.0 L 632.0 757.0 L 638.0 755.0 L 655.0 753.0 Z M 693.0 741.0 L 695.0 746.0 L 697.0 748.0 L 694.0 762.0 L 700.0 761.0 L 701.0 754.0 L 702.0 753.0 L 702.0 748.0 L 701.0 747.0 L 698.0 748.0 L 694.0 741.0 Z M 552.0 740.0 L 546.0 742.0 L 542.0 742.0 L 541.0 743.0 L 525.0 745.0 L 524.0 746.0 L 521.0 746.0 L 520.0 748.0 L 520.0 753.0 L 519.0 754.0 L 519.0 759.0 L 518.0 761.0 L 520.0 760.0 L 520.0 756.0 L 522.0 750.0 L 530.0 761.0 L 534.0 770.0 L 536.0 772.0 L 536.0 779.0 L 535.0 780.0 L 527.0 770.0 L 525.0 769.0 L 529.0 776.0 L 535.0 783.0 L 552.0 780.0 L 554.0 776.0 L 554.0 771.0 L 543.0 749.0 L 542.0 749.0 L 542.0 753.0 L 540.0 755.0 L 535.0 755.0 L 534.0 756.0 L 530.0 756.0 L 524.0 749.0 L 528.0 747.0 L 543.0 745.0 L 548.0 743.0 L 549.0 744.0 L 549.0 753.0 L 550.0 756.0 L 552.0 755.0 L 552.0 745.0 L 553.0 744.0 L 553.0 741.0 Z M 552.0 773.0 L 549.0 778.0 L 540.0 779.0 L 539.0 780.0 L 538.0 779.0 L 538.0 777.0 L 540.0 774.0 L 548.0 773.0 L 549.0 772.0 Z M 706.0 739.0 L 710.0 745.0 L 710.0 751.0 L 707.0 759.0 L 711.0 759.0 L 714.0 758.0 L 714.0 752.0 L 716.0 746.0 L 712.0 746.0 L 708.0 739.0 Z M 717.0 736.0 L 722.0 742.0 L 721.0 744.0 L 722.0 747.0 L 719.0 755.0 L 719.0 757.0 L 722.0 757.0 L 725.0 755.0 L 725.0 749.0 L 727.0 744.0 L 721.0 739.0 L 720.0 736.0 Z M 731.0 733.0 L 729.0 734.0 L 732.0 740.0 L 735.0 740.0 L 736.0 741.0 L 733.0 742.0 L 731.0 748.0 L 731.0 752.0 L 729.0 755.0 L 734.0 755.0 L 736.0 753.0 L 737.0 741.0 L 735.0 740.0 Z M 742.0 732.0 L 741.0 733.0 L 745.0 738.0 L 745.0 742.0 L 744.0 743.0 L 743.0 750.0 L 740.0 752.0 L 745.0 753.0 L 748.0 752.0 L 750.0 740.0 L 747.0 738.0 L 745.0 733.0 Z M 755.0 730.0 L 754.0 730.0 L 757.0 737.0 L 755.0 741.0 L 753.0 751.0 L 758.0 750.0 L 761.0 741.0 L 761.0 737.0 L 758.0 735.0 L 758.0 733.0 Z M 1032.0 728.0 L 1020.0 731.0 L 1014.0 731.0 L 1013.0 732.0 L 1008.0 732.0 L 1007.0 733.0 L 1002.0 733.0 L 996.0 735.0 L 971.0 739.0 L 964.0 767.0 L 960.0 778.0 L 959.0 785.0 L 948.0 821.0 L 947.0 828.0 L 945.0 832.0 L 944.0 839.0 L 941.0 846.0 L 938.0 860.0 L 923.0 910.0 L 922.0 918.0 L 978.0 909.0 L 983.0 907.0 L 991.0 876.0 L 995.0 865.0 L 996.0 858.0 L 1002.0 840.0 L 1003.0 833.0 L 1007.0 822.0 L 1008.0 815.0 L 1010.0 811.0 L 1011.0 804.0 L 1013.0 800.0 L 1014.0 793.0 L 1025.0 757.0 Z M 769.0 728.0 L 768.0 728.0 L 768.0 730.0 L 771.0 734.0 L 769.0 736.0 L 768.0 742.0 L 765.0 749.0 L 767.0 748.0 L 772.0 748.0 L 774.0 742.0 L 774.0 738.0 L 775.0 737.0 L 775.0 735.0 L 772.0 734.0 Z M 779.0 725.0 L 783.0 732.0 L 783.0 737.0 L 782.0 738.0 L 782.0 741.0 L 780.0 743.0 L 780.0 746.0 L 786.0 745.0 L 787.0 738.0 L 788.0 737.0 L 788.0 732.0 L 784.0 732.0 L 780.0 725.0 Z M 798.0 709.0 L 791.0 709.0 L 790.0 710.0 L 785.0 710.0 L 779.0 712.0 L 762.0 714.0 L 756.0 716.0 L 751.0 716.0 L 750.0 717.0 L 746.0 717.0 L 740.0 719.0 L 730.0 720.0 L 725.0 722.0 L 720.0 722.0 L 719.0 723.0 L 714.0 723.0 L 708.0 725.0 L 703.0 725.0 L 698.0 727.0 L 688.0 728.0 L 689.0 731.0 L 694.0 731.0 L 695.0 730.0 L 705.0 729.0 L 711.0 727.0 L 716.0 727.0 L 717.0 726.0 L 739.0 723.0 L 745.0 721.0 L 756.0 720.0 L 757.0 719.0 L 761.0 719.0 L 762.0 718.0 L 766.0 718.0 L 767.0 717.0 L 771.0 717.0 L 777.0 715.0 L 782.0 715.0 L 783.0 714.0 L 797.0 712.0 Z M 958.0 700.0 L 954.0 697.0 L 953.0 698.0 L 949.0 698.0 L 948.0 699.0 L 944.0 699.0 L 943.0 700.0 L 939.0 700.0 L 933.0 702.0 L 927.0 702.0 L 917.0 705.0 L 911.0 705.0 L 910.0 706.0 L 901.0 707.0 L 896.0 709.0 L 891.0 709.0 L 885.0 711.0 L 868.0 713.0 L 863.0 715.0 L 851.0 716.0 L 844.0 718.0 L 837.0 718.0 L 836.0 719.0 L 830.0 719.0 L 824.0 721.0 L 818.0 721.0 L 817.0 725.0 L 822.0 725.0 L 823.0 724.0 L 833.0 723.0 L 834.0 722.0 L 847.0 721.0 L 848.0 720.0 L 852.0 720.0 L 858.0 718.0 L 869.0 717.0 L 870.0 716.0 L 892.0 713.0 L 893.0 712.0 L 908.0 710.0 L 914.0 708.0 L 936.0 705.0 L 937.0 704.0 L 941.0 704.0 L 947.0 702.0 L 958.0 701.0 Z M 813.0 712.0 L 801.0 693.0 L 732.0 707.0 L 720.0 708.0 L 709.0 711.0 L 671.0 717.0 L 668.0 719.0 L 678.0 737.0 L 673.0 761.0 L 666.0 750.0 L 662.0 746.0 L 674.0 765.0 L 683.0 764.0 L 685.0 762.0 L 684.0 760.0 L 682.0 761.0 L 677.0 760.0 L 680.0 741.0 L 685.0 736.0 L 680.0 729.0 L 681.0 727.0 L 684.0 727.0 L 694.0 723.0 L 701.0 724.0 L 698.0 723.0 L 699.0 722.0 L 706.0 723.0 L 710.0 722.0 L 708.0 721.0 L 709.0 720.0 L 714.0 721.0 L 713.0 720.0 L 718.0 718.0 L 724.0 718.0 L 729.0 716.0 L 765.0 710.0 L 796.0 703.0 L 799.0 704.0 L 803.0 715.0 L 810.0 716.0 L 805.0 737.0 L 803.0 739.0 L 794.0 740.0 L 795.0 743.0 L 807.0 741.0 Z M 799.0 703.0 L 800.0 702.0 L 803.0 702.0 L 806.0 707.0 L 805.0 708.0 L 804.0 707.0 L 802.0 708.0 Z M 802.0 697.0 L 802.0 699.0 L 798.0 701.0 L 794.0 701.0 L 793.0 702.0 L 789.0 702.0 L 784.0 704.0 L 779.0 704.0 L 778.0 705.0 L 774.0 705.0 L 768.0 707.0 L 757.0 708.0 L 751.0 710.0 L 715.0 715.0 L 714.0 716.0 L 704.0 717.0 L 703.0 718.0 L 693.0 719.0 L 692.0 720.0 L 687.0 720.0 L 681.0 722.0 L 673.0 722.0 L 671.0 720.0 L 678.0 717.0 L 683.0 717.0 L 684.0 716.0 L 689.0 716.0 L 695.0 714.0 L 718.0 711.0 L 719.0 710.0 L 723.0 710.0 L 724.0 709.0 L 728.0 709.0 L 734.0 707.0 L 739.0 707.0 L 745.0 705.0 L 750.0 705.0 L 756.0 703.0 L 761.0 703.0 L 767.0 701.0 L 772.0 701.0 L 773.0 700.0 L 777.0 700.0 L 778.0 699.0 L 782.0 699.0 L 783.0 698.0 L 787.0 698.0 L 793.0 696.0 L 798.0 696.0 L 800.0 695.0 Z M 1071.0 625.0 L 1063.0 625.0 L 1062.0 626.0 L 1045.0 628.0 L 1044.0 629.0 L 1040.0 629.0 L 1029.0 632.0 L 1024.0 632.0 L 1018.0 634.0 L 1012.0 634.0 L 998.0 638.0 L 982.0 640.0 L 981.0 641.0 L 977.0 641.0 L 966.0 644.0 L 961.0 644.0 L 960.0 645.0 L 956.0 645.0 L 955.0 646.0 L 946.0 647.0 L 940.0 649.0 L 929.0 650.0 L 924.0 652.0 L 919.0 652.0 L 918.0 653.0 L 889.0 657.0 L 879.0 660.0 L 863.0 662.0 L 852.0 665.0 L 860.0 664.0 L 861.0 663.0 L 866.0 663.0 L 867.0 662.0 L 873.0 662.0 L 874.0 661.0 L 884.0 660.0 L 885.0 659.0 L 890.0 659.0 L 891.0 658.0 L 901.0 657.0 L 907.0 655.0 L 913.0 655.0 L 914.0 654.0 L 924.0 653.0 L 930.0 651.0 L 941.0 650.0 L 942.0 649.0 L 946.0 649.0 L 957.0 646.0 L 962.0 646.0 L 963.0 645.0 L 967.0 645.0 L 968.0 644.0 L 972.0 644.0 L 973.0 643.0 L 977.0 643.0 L 978.0 642.0 L 982.0 642.0 L 983.0 641.0 L 987.0 641.0 L 988.0 640.0 L 992.0 640.0 L 993.0 639.0 L 997.0 639.0 L 1008.0 636.0 L 1019.0 635.0 L 1030.0 632.0 L 1053.0 629.0 L 1054.0 628.0 Z M 694.0 587.0 L 665.0 593.0 L 635.0 642.0 L 635.0 644.0 L 636.0 643.0 L 641.0 643.0 L 642.0 642.0 L 657.0 640.0 L 658.0 639.0 L 662.0 639.0 L 663.0 640.0 L 655.0 664.0 L 652.0 677.0 L 708.0 618.0 L 691.0 620.0 L 690.0 621.0 L 686.0 621.0 L 680.0 623.0 L 676.0 623.0 L 675.0 622.0 L 677.0 620.0 Z M 931.0 566.0 L 940.0 585.0 L 944.0 591.0 L 959.0 589.0 L 946.0 563.0 Z M 952.0 562.0 L 952.0 564.0 L 954.0 566.0 L 960.0 579.0 L 965.0 587.0 L 970.0 587.0 L 971.0 586.0 L 979.0 585.0 L 965.0 560.0 Z M 971.0 559.0 L 984.0 584.0 L 992.0 583.0 L 993.0 582.0 L 998.0 582.0 L 998.0 580.0 L 992.0 571.0 L 985.0 557.0 L 980.0 557.0 L 979.0 558.0 Z M 991.0 555.0 L 993.0 561.0 L 995.0 563.0 L 1001.0 576.0 L 1004.0 580.0 L 1018.0 578.0 L 1016.0 572.0 L 1014.0 570.0 L 1005.0 553.0 Z M 1037.0 581.0 L 1037.0 578.0 L 1019.0 546.0 L 1015.0 543.0 L 1007.0 543.0 L 1006.0 544.0 L 1001.0 544.0 L 995.0 546.0 L 990.0 546.0 L 989.0 547.0 L 966.0 550.0 L 960.0 552.0 L 955.0 552.0 L 949.0 554.0 L 926.0 557.0 L 925.0 558.0 L 922.0 558.0 L 918.0 563.0 L 918.0 565.0 L 935.0 598.0 L 939.0 601.0 L 948.0 601.0 L 949.0 600.0 L 954.0 600.0 L 960.0 598.0 L 965.0 598.0 L 966.0 597.0 L 977.0 596.0 L 978.0 595.0 L 988.0 594.0 L 994.0 592.0 L 999.0 592.0 L 1005.0 590.0 L 1010.0 590.0 L 1011.0 589.0 L 1022.0 588.0 L 1028.0 586.0 L 1033.0 586.0 Z M 1035.0 580.0 L 1034.0 582.0 L 1031.0 584.0 L 1026.0 584.0 L 1025.0 585.0 L 1003.0 588.0 L 997.0 590.0 L 986.0 591.0 L 985.0 592.0 L 970.0 594.0 L 964.0 596.0 L 959.0 596.0 L 958.0 597.0 L 953.0 597.0 L 947.0 599.0 L 940.0 599.0 L 935.0 593.0 L 930.0 582.0 L 928.0 580.0 L 921.0 566.0 L 921.0 562.0 L 923.0 560.0 L 928.0 560.0 L 934.0 558.0 L 939.0 558.0 L 940.0 557.0 L 945.0 557.0 L 951.0 555.0 L 956.0 555.0 L 957.0 554.0 L 962.0 554.0 L 963.0 553.0 L 968.0 553.0 L 969.0 552.0 L 974.0 552.0 L 980.0 550.0 L 985.0 550.0 L 986.0 549.0 L 991.0 549.0 L 997.0 547.0 L 1013.0 545.0 L 1019.0 550.0 L 1023.0 559.0 L 1028.0 566.0 Z M 247.0 509.0 L 226.0 509.0 L 225.0 529.0 L 224.0 530.0 L 224.0 576.0 L 225.0 577.0 L 225.0 589.0 L 226.0 590.0 L 227.0 607.0 L 228.0 608.0 L 228.0 613.0 L 229.0 614.0 L 230.0 622.0 L 232.0 621.0 L 237.0 621.0 L 238.0 620.0 L 243.0 620.0 L 244.0 619.0 L 249.0 619.0 L 250.0 618.0 L 249.0 607.0 L 248.0 606.0 L 248.0 598.0 L 247.0 597.0 L 247.0 588.0 L 246.0 587.0 L 246.0 575.0 L 245.0 574.0 L 245.0 539.0 L 246.0 538.0 Z M 1051.0 508.0 L 1101.0 598.0 L 1102.0 606.0 L 1095.0 631.0 L 1092.0 634.0 L 1076.0 638.0 L 1069.0 666.0 L 986.0 680.0 L 985.0 682.0 L 1069.0 666.0 L 1072.0 667.0 L 1063.0 673.0 L 1079.0 671.0 L 1086.0 664.0 L 1087.0 668.0 L 1083.0 673.0 L 990.0 690.0 L 989.0 695.0 L 1079.0 679.0 L 1087.0 676.0 L 1091.0 671.0 L 1091.0 661.0 L 1081.0 644.0 L 1084.0 639.0 L 1095.0 637.0 L 1100.0 633.0 L 1107.0 601.0 Z M 1097.0 601.0 L 1044.0 509.0 L 964.0 519.0 L 1050.0 506.0 L 1037.0 501.0 L 230.0 635.0 L 220.0 643.0 L 211.0 701.0 L 269.0 811.0 L 287.0 818.0 L 522.0 774.0 L 278.0 813.0 L 215.0 700.0 L 227.0 641.0 L 294.0 758.0 L 289.0 784.0 L 226.0 670.0 L 282.0 777.0 L 280.0 809.0 L 284.0 786.0 L 292.0 808.0 L 305.0 773.0 L 654.0 710.0 L 651.0 741.0 L 660.0 708.0 L 826.0 680.0 L 820.0 712.0 L 946.0 690.0 L 822.0 709.0 L 830.0 677.0 L 950.0 655.0 L 948.0 675.0 L 952.0 668.0 L 965.0 697.0 L 953.0 682.0 L 960.0 694.0 L 980.0 698.0 L 976.0 650.0 L 1090.0 630.0 Z M 293.0 788.0 L 294.0 789.0 L 294.0 792.0 L 293.0 793.0 L 291.0 790.0 Z M 303.0 761.0 L 304.0 760.0 L 309.0 760.0 L 310.0 761.0 L 309.0 762.0 L 304.0 762.0 Z M 981.0 690.0 L 980.0 692.0 L 975.0 696.0 L 971.0 696.0 L 970.0 697.0 L 968.0 696.0 L 970.0 691.0 L 977.0 690.0 L 978.0 689.0 Z M 954.0 665.0 L 961.0 663.0 L 971.0 663.0 L 972.0 664.0 L 969.0 669.0 L 963.0 672.0 L 959.0 672.0 Z M 973.0 653.0 L 971.0 657.0 L 967.0 657.0 L 957.0 660.0 L 954.0 660.0 L 953.0 659.0 L 953.0 656.0 L 955.0 654.0 L 965.0 653.0 L 971.0 651.0 Z M 1091.0 615.0 L 1088.0 626.0 L 297.0 770.0 L 299.0 764.0 L 319.0 757.0 Z M 535.0 595.0 L 259.0 642.0 L 251.0 642.0 L 249.0 640.0 L 244.0 639.0 L 253.0 636.0 L 271.0 634.0 L 501.0 595.0 L 506.0 596.0 L 498.0 598.0 L 527.0 594.0 Z M 507.0 595.0 L 508.0 594.0 L 512.0 594.0 L 513.0 595.0 L 512.0 596.0 L 508.0 596.0 Z M 535.0 594.0 L 536.0 593.0 L 540.0 593.0 L 541.0 594.0 L 540.0 595.0 L 536.0 595.0 Z M 513.0 594.0 L 514.0 593.0 L 517.0 593.0 L 518.0 594.0 L 517.0 595.0 L 514.0 595.0 Z M 542.0 593.0 L 543.0 592.0 L 547.0 592.0 L 548.0 593.0 L 547.0 594.0 L 543.0 594.0 Z M 518.0 593.0 L 519.0 592.0 L 523.0 592.0 L 524.0 593.0 L 523.0 594.0 L 519.0 594.0 Z M 524.0 592.0 L 525.0 591.0 L 529.0 591.0 L 530.0 592.0 L 529.0 593.0 L 525.0 593.0 Z M 530.0 591.0 L 531.0 590.0 L 534.0 590.0 L 535.0 591.0 L 534.0 592.0 L 531.0 592.0 Z M 536.0 590.0 L 537.0 589.0 L 540.0 589.0 L 541.0 590.0 L 540.0 591.0 L 537.0 591.0 Z M 581.0 588.0 L 582.0 587.0 L 585.0 587.0 L 586.0 588.0 L 585.0 589.0 L 582.0 589.0 Z M 587.0 587.0 L 588.0 586.0 L 591.0 586.0 L 592.0 587.0 L 591.0 588.0 L 588.0 588.0 Z M 852.0 538.0 L 853.0 537.0 L 858.0 537.0 L 859.0 538.0 L 858.0 539.0 L 853.0 539.0 Z M 933.0 524.0 L 934.0 523.0 L 938.0 523.0 L 939.0 524.0 L 938.0 525.0 L 934.0 525.0 Z M 958.0 524.0 L 965.0 522.0 L 970.0 522.0 L 971.0 523.0 L 965.0 525.0 L 959.0 525.0 Z M 939.0 523.0 L 940.0 522.0 L 944.0 522.0 L 945.0 523.0 L 944.0 524.0 L 940.0 524.0 Z M 945.0 522.0 L 946.0 521.0 L 951.0 521.0 L 952.0 522.0 L 951.0 523.0 L 946.0 523.0 Z M 951.0 521.0 L 952.0 520.0 L 956.0 520.0 L 957.0 521.0 L 956.0 522.0 L 952.0 522.0 Z M 958.0 520.0 L 959.0 519.0 L 963.0 519.0 L 964.0 520.0 L 963.0 521.0 L 959.0 521.0 Z M 1081.0 600.0 L 1069.0 609.0 L 321.0 745.0 L 306.0 740.0 L 263.0 659.0 L 273.0 649.0 L 914.0 539.0 L 592.0 586.0 L 621.0 580.0 L 609.0 578.0 L 707.0 566.0 L 853.0 539.0 L 838.0 543.0 L 928.0 524.0 L 959.0 525.0 L 903.0 533.0 L 1033.0 518.0 Z M 338.0 470.0 L 333.0 470.0 L 332.0 471.0 L 311.0 471.0 L 310.0 472.0 L 291.0 472.0 L 290.0 473.0 L 277.0 473.0 L 276.0 474.0 L 264.0 474.0 L 263.0 475.0 L 251.0 475.0 L 250.0 476.0 L 237.0 476.0 L 236.0 477.0 L 223.0 477.0 L 222.0 478.0 L 209.0 478.0 L 208.0 479.0 L 195.0 479.0 L 194.0 480.0 L 159.0 482.0 L 162.0 483.0 L 210.0 484.0 L 211.0 485.0 L 260.0 486.0 L 261.0 487.0 L 286.0 487.0 L 287.0 488.0 L 322.0 488.0 L 322.0 487.0 L 315.0 487.0 L 308.0 485.0 L 309.0 484.0 L 319.0 484.0 L 320.0 482.0 L 324.0 482.0 L 323.0 480.0 L 326.0 479.0 L 316.0 479.0 L 315.0 478.0 L 316.0 477.0 L 330.0 476.0 L 330.0 475.0 L 320.0 475.0 L 319.0 474.0 L 320.0 473.0 L 334.0 472.0 L 335.0 471.0 L 338.0 471.0 Z M 314.0 482.0 L 315.0 481.0 L 319.0 481.0 L 320.0 482.0 L 319.0 483.0 L 315.0 483.0 Z M 739.0 484.0 L 739.0 489.0 L 744.0 495.0 L 788.0 517.0 L 801.0 525.0 L 800.0 526.0 L 790.0 526.0 L 742.0 504.0 L 738.0 505.0 L 735.0 508.0 L 735.0 513.0 L 741.0 520.0 L 772.0 537.0 L 778.0 535.0 L 841.0 525.0 L 839.0 513.0 L 841.0 492.0 L 810.0 472.0 L 770.0 459.0 L 764.0 460.0 L 761.0 464.0 L 761.0 468.0 L 765.0 474.0 L 800.0 489.0 L 818.0 503.0 L 817.0 504.0 L 806.0 503.0 L 747.0 479.0 L 741.0 481.0 Z M 388.0 415.0 L 386.0 414.0 L 367.0 416.0 L 314.0 417.0 L 313.0 418.0 L 295.0 418.0 L 294.0 419.0 L 277.0 419.0 L 276.0 420.0 L 259.0 420.0 L 258.0 421.0 L 148.0 427.0 L 280.0 432.0 L 281.0 433.0 L 307.0 433.0 L 308.0 434.0 L 354.0 434.0 L 342.0 432.0 L 345.0 430.0 L 359.0 430.0 L 359.0 429.0 L 345.0 429.0 L 344.0 428.0 L 345.0 427.0 L 362.0 426.0 L 352.0 426.0 L 351.0 425.0 L 352.0 424.0 L 366.0 424.0 L 356.0 423.0 L 355.0 422.0 L 356.0 421.0 L 373.0 420.0 L 368.0 419.0 L 363.0 420.0 L 362.0 419.0 L 363.0 418.0 Z M 924.0 409.0 L 923.0 410.0 L 919.0 410.0 L 918.0 411.0 L 908.0 413.0 L 903.0 418.0 L 870.0 461.0 L 883.0 459.0 L 884.0 458.0 L 887.0 459.0 L 866.0 496.0 L 919.0 441.0 L 909.0 442.0 L 903.0 444.0 L 900.0 443.0 L 916.0 422.0 L 918.0 418.0 L 924.0 411.0 Z M 839.0 409.0 L 814.0 465.0 L 818.0 468.0 L 820.0 467.0 L 823.0 461.0 L 823.0 459.0 L 826.0 454.0 L 826.0 452.0 L 838.0 424.0 L 839.0 417.0 L 840.0 416.0 Z M 506.0 400.0 L 382.0 443.0 L 297.0 606.0 L 375.0 555.0 L 336.0 566.0 L 330.0 566.0 L 392.0 471.0 L 394.0 472.0 L 421.0 542.0 L 405.0 455.0 L 463.0 425.0 Z M 522.0 389.0 L 508.0 407.0 L 501.0 418.0 L 567.0 452.0 L 567.0 451.0 L 563.0 449.0 L 536.0 428.0 L 518.0 412.0 L 520.0 405.0 L 520.0 401.0 L 523.0 392.0 L 523.0 389.0 Z M 995.0 366.0 L 983.0 391.0 L 983.0 393.0 L 992.0 414.0 L 997.0 429.0 L 997.0 432.0 L 1000.0 439.0 L 1000.0 442.0 L 1002.0 446.0 L 1002.0 450.0 L 1005.0 459.0 L 1006.0 469.0 L 1007.0 470.0 L 1007.0 474.0 L 1009.0 480.0 L 1009.0 486.0 L 1010.0 489.0 L 1019.0 488.0 L 1025.0 486.0 L 1030.0 486.0 L 1031.0 485.0 L 1031.0 482.0 L 1029.0 475.0 L 1029.0 469.0 L 1028.0 468.0 L 1027.0 458.0 L 1025.0 453.0 L 1025.0 449.0 L 1024.0 448.0 L 1020.0 429.0 L 1011.0 402.0 L 1002.0 382.0 L 1002.0 380.0 Z M 488.0 362.0 L 389.0 363.0 L 171.0 372.0 L 361.0 381.0 L 449.0 381.0 L 422.0 378.0 L 452.0 376.0 L 431.0 374.0 L 460.0 372.0 L 447.0 370.0 L 449.0 368.0 L 472.0 367.0 L 457.0 366.0 L 457.0 364.0 Z M 441.0 370.0 L 442.0 369.0 L 445.0 369.0 L 446.0 370.0 L 445.0 371.0 L 442.0 371.0 Z M 448.0 366.0 L 449.0 365.0 L 455.0 365.0 L 456.0 366.0 L 455.0 367.0 L 449.0 367.0 Z M 613.0 522.0 L 692.0 542.0 L 626.0 516.0 L 705.0 351.0 L 785.0 369.0 L 851.0 404.0 L 824.0 471.0 L 834.0 479.0 L 872.0 397.0 L 906.0 379.0 L 968.0 365.0 L 913.0 505.0 L 893.0 515.0 L 915.0 509.0 L 985.0 351.0 L 937.0 355.0 L 884.0 372.0 L 921.0 354.0 L 968.0 346.0 L 958.0 337.0 L 920.0 342.0 L 879.0 358.0 L 853.0 384.0 L 822.0 355.0 L 773.0 333.0 L 725.0 323.0 L 710.0 332.0 L 781.0 346.0 L 828.0 371.0 L 753.0 343.0 L 694.0 335.0 L 668.0 395.0 L 652.0 389.0 L 664.0 404.0 Z M 844.0 396.0 L 850.0 392.0 L 856.0 391.0 L 863.0 394.0 L 866.0 397.0 L 865.0 398.0 L 848.0 399.0 L 845.0 398.0 Z M 225.0 318.0 L 384.0 329.0 L 486.0 333.0 L 489.0 332.0 L 470.0 330.0 L 474.0 328.0 L 484.0 328.0 L 480.0 327.0 L 490.0 325.0 L 484.0 325.0 L 484.0 323.0 L 498.0 322.0 L 484.0 321.0 L 484.0 319.0 L 511.0 318.0 Z M 546.0 305.0 L 545.0 315.0 L 544.0 316.0 L 544.0 322.0 L 543.0 323.0 L 543.0 329.0 L 542.0 330.0 L 542.0 335.0 L 541.0 336.0 L 541.0 341.0 L 540.0 342.0 L 540.0 347.0 L 539.0 348.0 L 539.0 353.0 L 538.0 354.0 L 538.0 359.0 L 537.0 360.0 L 537.0 365.0 L 535.0 372.0 L 535.0 378.0 L 534.0 379.0 L 534.0 384.0 L 532.0 390.0 L 530.0 408.0 L 551.0 424.0 L 573.0 438.0 L 617.0 415.0 L 628.0 408.0 L 641.0 402.0 L 643.0 400.0 L 643.0 380.0 L 642.0 379.0 L 610.0 400.0 L 607.0 397.0 L 601.0 388.0 L 587.0 371.0 L 567.0 342.0 L 564.0 335.0 L 558.0 306.0 Z M 607.0 187.0 L 600.0 213.0 L 578.0 232.0 L 575.0 263.0 L 566.0 264.0 L 560.0 248.0 L 552.0 240.0 L 539.0 237.0 L 532.0 240.0 L 526.0 248.0 L 524.0 254.0 L 525.0 269.0 L 530.0 279.0 L 544.0 293.0 L 551.0 296.0 L 563.0 297.0 L 573.0 324.0 L 603.0 342.0 L 642.0 360.0 L 668.0 360.0 L 676.0 346.0 L 698.0 292.0 L 697.0 261.0 L 694.0 258.0 L 693.0 263.0 L 690.0 266.0 L 685.0 266.0 L 692.0 293.0 L 676.0 304.0 L 663.0 297.0 L 687.0 292.0 L 679.0 262.0 L 679.0 257.0 L 684.0 246.0 L 701.0 237.0 L 705.0 244.0 L 702.0 247.0 L 690.0 251.0 L 695.0 252.0 L 699.0 257.0 L 706.0 244.0 L 700.0 203.0 L 678.0 209.0 Z M 631.0 310.0 L 633.0 309.0 L 647.0 314.0 L 670.0 317.0 L 675.0 319.0 L 671.0 321.0 L 659.0 321.0 L 658.0 320.0 L 654.0 320.0 L 638.0 315.0 Z M 538.0 248.0 L 542.0 248.0 L 546.0 250.0 L 553.0 257.0 L 556.0 262.0 L 556.0 264.0 L 552.0 270.0 L 557.0 280.0 L 556.0 281.0 L 549.0 279.0 L 543.0 273.0 L 541.0 268.0 L 543.0 263.0 L 547.0 259.0 L 539.0 253.0 L 537.0 253.0 L 535.0 255.0 L 534.0 254.0 L 535.0 251.0 Z M 604.0 236.0 L 609.0 233.0 L 626.0 227.0 L 638.0 231.0 L 641.0 233.0 L 646.0 234.0 L 668.0 244.0 L 664.0 251.0 L 658.0 251.0 L 657.0 250.0 L 656.0 251.0 L 656.0 258.0 L 654.0 262.0 L 652.0 260.0 L 650.0 255.0 L 649.0 255.0 L 647.0 260.0 L 644.0 263.0 L 638.0 263.0 L 633.0 257.0 L 633.0 251.0 L 621.0 253.0 L 622.0 254.0 L 621.0 256.0 L 615.0 252.0 L 617.0 250.0 L 627.0 246.0 L 631.0 246.0 L 632.0 245.0 L 640.0 245.0 L 643.0 246.0 L 643.0 245.0 L 638.0 244.0 L 635.0 242.0 L 623.0 238.0 L 605.0 237.0 Z M 460.0 174.0 L 459.0 173.0 L 458.0 174.0 L 448.0 175.0 L 421.0 188.0 L 419.0 190.0 L 404.0 198.0 L 377.0 217.0 L 353.0 237.0 L 323.0 267.0 L 300.0 296.0 L 301.0 297.0 L 328.0 297.0 L 331.0 292.0 L 344.0 277.0 L 366.0 255.0 L 387.0 237.0 L 406.0 223.0 L 430.0 208.0 L 452.0 197.0 L 456.0 196.0 L 457.0 195.0 L 457.0 192.0 L 451.0 180.0 Z M 765.0 158.0 L 760.0 178.0 L 761.0 180.0 L 779.0 186.0 L 811.0 201.0 L 850.0 225.0 L 878.0 247.0 L 909.0 277.0 L 930.0 302.0 L 944.0 323.0 L 967.0 322.0 L 972.0 327.0 L 973.0 332.0 L 977.0 333.0 L 968.0 317.0 L 944.0 283.0 L 925.0 261.0 L 887.0 225.0 L 859.0 204.0 L 821.0 181.0 L 789.0 166.0 L 766.0 157.0 Z M 516.0 138.0 L 503.0 149.0 L 490.0 158.0 L 473.0 166.0 L 475.0 167.0 L 480.0 167.0 L 481.0 168.0 L 500.0 169.0 L 501.0 170.0 L 482.0 185.0 L 482.0 190.0 L 486.0 200.0 L 486.0 203.0 L 490.0 213.0 L 490.0 216.0 L 492.0 219.0 L 506.0 261.0 L 504.0 246.0 L 502.0 240.0 L 500.0 222.0 L 499.0 221.0 L 499.0 216.0 L 498.0 215.0 L 498.0 209.0 L 497.0 208.0 L 495.0 190.0 L 523.0 165.0 Z M 527.0 123.0 L 596.0 153.0 L 651.0 169.0 L 616.0 140.0 L 620.0 139.0 L 656.0 147.0 L 687.0 158.0 L 690.0 146.0 L 691.0 123.0 L 708.0 149.0 L 711.0 164.0 L 728.0 150.0 L 724.0 171.0 L 716.0 186.0 L 723.0 185.0 L 707.0 199.0 L 708.0 216.0 L 726.0 200.0 L 733.0 190.0 L 747.0 154.0 L 738.0 163.0 L 734.0 164.0 L 738.0 146.0 L 738.0 122.0 L 718.0 145.0 L 714.0 129.0 L 703.0 111.0 L 685.0 94.0 L 657.0 78.0 L 669.0 100.0 L 671.0 110.0 L 655.0 102.0 L 625.0 94.0 L 567.0 91.0 L 563.0 92.0 L 602.0 108.0 L 562.0 112.0 Z"/>
  </g>
</svg>
